<svg width="38" height="38" viewBox="0 0 38 38" fill="none" xmlns="http://www.w3.org/2000/svg">
<g filter="url(#filter0_d)">
<circle cx="19" cy="19" r="14" fill="white"/>
</g>
<path d="M25.8774 16.0325H25.4392V20.8491C25.4392 21.599 25.0026 22.2771 24.1272 22.2771H15.5508V22.5061C15.5508 23.1691 16.3049 23.8384 17.0793 23.8384H23.6364L26.1449 25.3133L25.7811 23.8384H25.8774C26.6513 23.8384 27.0005 23.1707 27.0005 22.5061V17.1759C27.0005 16.5129 26.6513 16.0325 25.8774 16.0325Z" fill="#DD052B"/>
<path d="M22.8463 12.6862H12.885C12.0086 12.6862 11 13.4647 11 14.2152V20.2522C11 20.9433 11.8546 21.4424 12.6743 21.5194L12.1408 23.5444L15.5591 21.5334H22.8463C23.7228 21.5334 24.5315 21.0021 24.5315 20.2522V15.3679V14.2152C24.5315 13.4647 23.7222 12.6862 22.8463 12.6862ZM14.4047 17.7822C13.9077 17.7822 13.5049 17.3794 13.5049 16.8824C13.5049 16.3854 13.9077 15.9826 14.4047 15.9826C14.9012 15.9826 15.3046 16.3854 15.3046 16.8824C15.3046 17.3794 14.9012 17.7822 14.4047 17.7822ZM17.7658 17.7822C17.2687 17.7822 16.8659 17.3794 16.8659 16.8824C16.8659 16.3854 17.2687 15.9826 17.7658 15.9826C18.2628 15.9826 18.6656 16.3854 18.6656 16.8824C18.6656 17.3794 18.2628 17.7822 17.7658 17.7822ZM21.1273 17.7822C20.6303 17.7822 20.2269 17.3794 20.2269 16.8824C20.2269 16.3854 20.6303 15.9826 21.1273 15.9826C21.6233 15.9826 22.0272 16.3854 22.0272 16.8824C22.0272 17.3794 21.6233 17.7822 21.1273 17.7822Z" fill="#DD052B"/>
<defs>
<filter id="filter0_d" x="0" y="0" width="38" height="38" filterUnits="userSpaceOnUse" color-interpolation-filters="sRGB">
<feFlood flood-opacity="0" result="BackgroundImageFix"/>
<feColorMatrix in="SourceAlpha" type="matrix" values="0 0 0 0 0 0 0 0 0 0 0 0 0 0 0 0 0 0 127 0"/>
<feOffset/>
<feGaussianBlur stdDeviation="2.5"/>
<feColorMatrix type="matrix" values="0 0 0 0 0 0 0 0 0 0 0 0 0 0 0 0 0 0 0.25 0"/>
<feBlend mode="normal" in2="BackgroundImageFix" result="effect1_dropShadow"/>
<feBlend mode="normal" in="SourceGraphic" in2="effect1_dropShadow" result="shape"/>
</filter>
</defs>
</svg>
