<svg width="37" height="37" viewBox="0 0 37 37" fill="none" xmlns="http://www.w3.org/2000/svg">
<circle cx="18.5" cy="18.5" r="18.5" fill="#3B5998"/>
<path d="M22.9995 9.00416L20.406 9C17.4922 9 15.6092 10.9319 15.6092 13.922V16.1914H13.0016C12.7762 16.1914 12.5938 16.3741 12.5938 16.5994V19.8875C12.5938 20.1128 12.7764 20.2953 13.0016 20.2953H15.6092V28.5922C15.6092 28.8175 15.7917 29 16.017 29H19.4193C19.6446 29 19.8271 28.8173 19.8271 28.5922V20.2953H22.8761C23.1014 20.2953 23.2839 20.1128 23.2839 19.8875L23.2851 16.5994C23.2851 16.4912 23.2421 16.3876 23.1657 16.311C23.0894 16.2345 22.9853 16.1914 22.8771 16.1914H19.8271V14.2676C19.8271 13.343 20.0475 12.8736 21.2519 12.8736L22.9991 12.873C23.2242 12.873 23.4067 12.6903 23.4067 12.4651V9.41197C23.4067 9.18705 23.2244 9.00458 22.9995 9.00416Z" fill="white"/>
</svg>
