<svg width="37" height="37" viewBox="0 0 37 37" fill="none" xmlns="http://www.w3.org/2000/svg">
<circle cx="18.5" cy="18.5" r="18.5" transform="rotate(-90 18.5 18.5)" fill="url(#paint0_linear)"/>
<g clip-path="url(#clip0)">
<path d="M18.7067 29.0004C18.6371 29.0004 18.5676 29.0004 18.4976 29.0001C16.8515 29.0041 15.3306 28.9623 13.8515 28.8723C12.4954 28.7897 11.2575 28.3211 10.2716 27.5171C9.32019 26.7414 8.67051 25.6924 8.34062 24.3998C8.05351 23.2744 8.03829 22.1697 8.02371 21.1012C8.01314 20.3346 8.00224 19.4262 8 18.5024C8.00224 17.5747 8.01314 16.6663 8.02371 15.8996C8.03829 14.8313 8.05351 13.7266 8.34062 12.6011C8.67051 11.3084 9.32019 10.2595 10.2716 9.48372C11.2575 8.67975 12.4954 8.21112 13.8516 8.1286C15.3307 8.03872 16.852 7.99674 18.5016 8.00075C20.1482 7.99723 21.6686 8.03872 23.1477 8.1286C24.5038 8.21112 25.7417 8.67975 26.7276 9.48372C27.6792 10.2595 28.3287 11.3084 28.6586 12.6011C28.9457 13.7264 28.9609 14.8313 28.9755 15.8996C28.9861 16.6663 28.9971 17.5747 28.9992 18.4985V18.5024C28.9971 19.4262 28.9861 20.3346 28.9755 21.1012C28.9609 22.1696 28.9458 23.2743 28.6586 24.3998C28.3287 25.6924 27.6792 26.7414 26.7276 27.5171C25.7417 28.3211 24.5038 28.7897 23.1477 28.8723C21.7313 28.9585 20.2762 29.0004 18.7067 29.0004ZM18.4976 27.3595C20.1169 27.3633 21.6037 27.3225 23.0481 27.2347C24.0735 27.1723 24.9625 26.8396 25.6909 26.2457C26.3641 25.6966 26.8278 24.9391 27.0689 23.9941C27.3079 23.0573 27.3217 22.0515 27.335 21.0788C27.3454 20.3173 27.3563 19.4153 27.3586 18.5004C27.3563 17.5854 27.3454 16.6836 27.335 15.9221C27.3217 14.9494 27.3079 13.9435 27.0689 13.0066C26.8278 12.0616 26.3641 11.3041 25.6909 10.755C24.9625 10.1613 24.0735 9.82851 23.0481 9.76618C21.6037 9.67822 20.1169 9.63769 18.5014 9.64121C16.8824 9.63737 15.3955 9.67822 13.9511 9.76618C12.9257 9.82851 12.0367 10.1613 11.3083 10.755C10.6351 11.3041 10.1714 12.0616 9.9303 13.0066C9.69125 13.9435 9.67747 14.9492 9.66418 15.9221C9.65376 16.6842 9.64287 17.5867 9.64062 18.5024C9.64287 19.414 9.65376 20.3167 9.66418 21.0788C9.67747 22.0515 9.69125 23.0573 9.9303 23.9941C10.1714 24.9391 10.6351 25.6966 11.3083 26.2457C12.0367 26.8394 12.9257 27.1722 13.9511 27.2345C15.3955 27.3225 16.8828 27.3635 18.4976 27.3595ZM18.4585 23.6274C15.6316 23.6274 13.3316 21.3275 13.3316 18.5004C13.3316 15.6734 15.6316 13.3735 18.4585 13.3735C21.2855 13.3735 23.5855 15.6734 23.5855 18.5004C23.5855 21.3275 21.2855 23.6274 18.4585 23.6274ZM18.4585 15.0141C16.5362 15.0141 14.9722 16.5781 14.9722 18.5004C14.9722 20.4227 16.5362 21.9868 18.4585 21.9868C20.381 21.9868 21.9448 20.4227 21.9448 18.5004C21.9448 16.5781 20.381 15.0141 18.4585 15.0141ZM24.1597 11.7329C23.4802 11.7329 22.9292 12.2837 22.9292 12.9633C22.9292 13.643 23.4802 14.1938 24.1597 14.1938C24.8393 14.1938 25.3901 13.643 25.3901 12.9633C25.3901 12.2837 24.8393 11.7329 24.1597 11.7329Z" fill="white"/>
</g>
<defs>
<linearGradient id="paint0_linear" x1="7" y1="1.5" x2="38.5" y2="27.5" gradientUnits="userSpaceOnUse">
<stop stop-color="#405DE6"/>
<stop offset="0.104167" stop-color="#5851DB"/>
<stop offset="0.203125" stop-color="#833AB4"/>
<stop offset="0.333333" stop-color="#C13584"/>
<stop offset="0.453125" stop-color="#E1306C"/>
<stop offset="0.552083" stop-color="#FD1D1D"/>
<stop offset="0.65625" stop-color="#F56040"/>
<stop offset="0.760417" stop-color="#F77737"/>
<stop offset="0.880208" stop-color="#FCAF45"/>
<stop offset="1" stop-color="#FFDC80"/>
</linearGradient>
<clipPath id="clip0">
<rect x="8" y="8" width="21" height="21" fill="white"/>
</clipPath>
</defs>
</svg>
