<svg width="37" height="37" viewBox="0 0 37 37" fill="none" xmlns="http://www.w3.org/2000/svg">
<circle cx="18.5" cy="18.5" r="18.5" fill="#45668E"/>
<g clip-path="url(#clip0)">
<path d="M24.5958 20.8567C24.2725 20.4484 24.365 20.2667 24.5958 19.9017C24.6 19.8976 27.2692 16.2092 27.5442 14.9584L27.5458 14.9576C27.6825 14.5017 27.5458 14.1667 26.885 14.1667H24.6983C24.1417 14.1667 23.885 14.4542 23.7475 14.7759C23.7475 14.7759 22.6342 17.4409 21.0592 19.1684C20.5508 19.6676 20.3158 19.8276 20.0383 19.8276C19.9017 19.8276 19.6892 19.6676 19.6892 19.2117V14.9576C19.6892 14.4109 19.5333 14.1667 19.0725 14.1667H15.6342C15.285 14.1667 15.0775 14.4217 15.0775 14.6592C15.0775 15.1776 15.865 15.2967 15.9467 16.7551V19.9192C15.9467 20.6126 15.8208 20.7401 15.5417 20.7401C14.7983 20.7401 12.9942 18.0642 11.925 15.0017C11.7092 14.4076 11.4983 14.1676 10.9375 14.1676H8.75C8.12583 14.1676 8 14.4551 8 14.7767C8 15.3451 8.74333 18.1709 11.4567 21.9042C13.265 24.4526 15.8117 25.8334 18.1283 25.8334C19.5208 25.8334 19.6908 25.5267 19.6908 24.9992C19.6908 22.5642 19.565 22.3342 20.2625 22.3342C20.5858 22.3342 21.1425 22.4942 22.4425 23.7234C23.9283 25.1809 24.1725 25.8334 25.0042 25.8334H27.1908C27.8142 25.8334 28.13 25.5267 27.9483 24.9217C27.5325 23.6492 24.7225 21.0317 24.5958 20.8567Z" fill="white"/>
</g>
<defs>
<clipPath id="clip0">
<rect x="8" y="10" width="20" height="20" fill="white"/>
</clipPath>
</defs>
</svg>
